<?xml version="1.0" standalone="no"?>
<!DOCTYPE svg PUBLIC "-//W3C//DTD SVG 20010904//EN"
 "http://www.w3.org/TR/2001/REC-SVG-20010904/DTD/svg10.dtd">
<svg version="1.0" xmlns="http://www.w3.org/2000/svg"
 width="500.000000pt" height="500.000000pt" viewBox="0 0 500.000000 500.000000"
 preserveAspectRatio="xMidYMid meet">
<metadata>
Created by potrace 1.14, written by Peter Selinger 2001-2017
</metadata>
<g transform="translate(0.000000,500.000000) scale(0.100000,-0.100000)"
fill="#000000" stroke="none">
<path d="M2480 4726 c0 -240 2 -275 16 -280 29 -11 34 -6 34 34 0 29 -4 40
-15 40 -8 0 -15 7 -15 16 0 10 6 14 15 10 9 -3 15 0 15 9 0 8 -5 15 -12 15 -9
0 -9 3 0 12 9 9 12 70 12 215 l0 203 -25 0 -25 0 0 -274z"/>
<path d="M1273 4677 c-22 -12 -21 -16 113 -255 l135 -242 25 16 24 16 -19 32
c-10 17 -69 121 -131 231 -61 110 -114 203 -118 207 -4 4 -17 1 -29 -5z"/>
<path d="M3652 4398 c-132 -214 -142 -233 -126 -245 10 -7 21 -13 25 -13 8 0
289 448 289 461 0 7 -33 30 -42 29 -2 -1 -68 -105 -146 -232z"/>
<path d="M376 3818 c-14 -20 -14 -23 2 -33 53 -37 362 -225 369 -225 4 0 14 9
21 20 11 18 8 22 -25 43 -387 243 -348 222 -367 195z"/>
<path d="M4455 3624 c-110 -63 -208 -117 -217 -120 -13 -5 -16 -13 -12 -30 5
-19 2 -24 -12 -24 -13 0 -15 -3 -7 -11 8 -8 73 24 239 116 126 70 233 131 237
135 9 8 -9 51 -21 49 -4 0 -97 -52 -207 -115z"/>
<path d="M827 3538 c-4 -12 -4 -24 -2 -27 7 -7 34 32 29 41 -9 15 -22 8 -27
-14z"/>
<path d="M2648 2729 c-34 -17 -37 -21 -26 -39 7 -11 18 -20 25 -20 7 0 13 -7
13 -15 0 -8 -6 -15 -14 -15 -7 0 -21 -10 -29 -22 -16 -22 -16 -22 -16 20 -1
40 -2 42 -31 42 -20 0 -30 -5 -30 -15 0 -23 -49 -65 -76 -65 -12 0 -24 -5 -26
-11 -3 -9 -10 -9 -27 1 -33 17 -116 8 -149 -17 -54 -40 -74 -82 -70 -150 2
-37 -1 -58 -6 -53 -5 5 -19 1 -34 -10 -32 -26 -45 -25 -78 3 -36 31 -28 47 40
87 58 33 74 58 62 104 -8 32 -55 50 -112 43 -70 -7 -126 -58 -145 -128 -8 -30
-8 -28 -4 13 6 59 -3 108 -21 115 -8 3 -25 2 -39 -1 -24 -6 -24 -8 -19 -84 5
-68 -7 -144 -21 -130 -2 2 -11 46 -19 97 -9 51 -21 99 -27 107 -6 8 -29 14
-50 14 -53 0 -62 -21 -54 -115 9 -89 -7 -134 -23 -70 -6 22 -14 64 -17 94 -8
63 -32 91 -76 91 -28 0 -99 -26 -99 -37 0 -16 23 -41 34 -37 10 4 15 -11 19
-58 8 -84 33 -154 64 -178 33 -26 83 -26 116 0 l26 21 21 -21 c50 -50 135 -8
161 81 16 55 29 72 29 36 0 -76 66 -137 150 -137 47 0 73 11 112 47 26 24 26
25 37 5 23 -43 132 -68 184 -41 12 6 34 23 50 37 22 21 27 23 27 9 0 -29 37
-57 76 -57 45 0 71 14 93 51 l18 30 17 -25 c26 -41 72 -59 133 -54 60 5 96 31
120 87 l15 34 18 -41 c49 -110 210 -110 259 -1 l19 41 18 -39 c37 -74 131
-106 204 -68 68 35 98 165 57 243 -53 98 -210 95 -257 -5 -8 -18 -17 -33 -20
-33 -3 0 -12 15 -20 33 -49 104 -212 102 -259 -3 -18 -40 -31 -43 -31 -7 0 10
-15 34 -34 53 -29 29 -41 34 -80 34 l-46 0 0 55 c0 90 -50 118 -132 74z m100
-11 c7 -7 12 -42 12 -85 0 -70 1 -73 19 -63 33 17 89 12 111 -10 29 -29 40
-63 40 -126 0 -93 -45 -146 -126 -148 -92 -2 -124 42 -131 183 l-6 96 -43 -4
-44 -3 0 -109 c0 -89 3 -111 15 -115 8 -4 22 -1 30 6 23 19 19 -6 -5 -30 -31
-31 -85 -30 -112 2 -15 17 -18 40 -18 134 0 95 -3 114 -15 114 -25 0 -17 17
14 28 16 6 39 24 52 41 30 41 39 39 39 -9 0 -39 1 -40 37 -40 29 0 34 3 25 12
-18 18 -15 28 8 28 17 0 20 7 20 41 0 32 -3 40 -15 35 -24 -9 -17 10 8 22 30
15 70 15 85 0z m-1159 -152 c6 -8 18 -52 25 -100 16 -93 20 -106 41 -106 21 0
30 38 30 130 l0 85 28 3 c41 5 54 -11 62 -76 11 -98 26 -143 44 -140 26 5 43
75 37 151 -5 66 -4 68 17 65 28 -4 34 -47 17 -139 -25 -144 -112 -201 -168
-110 l-18 29 -16 -29 c-10 -16 -29 -34 -43 -39 -61 -23 -106 39 -126 178 -10
73 -14 82 -32 82 -20 0 -20 0 -1 15 24 18 88 19 103 1z m550 4 c49 -26 32 -68
-45 -112 -31 -17 -58 -37 -61 -44 -6 -17 22 -70 42 -78 25 -9 73 -7 80 4 9 15
25 12 19 -3 -15 -40 -124 -64 -172 -38 -91 48 -88 201 4 262 31 20 103 26 133
9z m270 0 c49 -26 32 -68 -45 -112 -31 -17 -58 -37 -61 -44 -6 -17 22 -70 42
-78 25 -9 73 -7 80 4 9 15 25 12 19 -3 -15 -40 -124 -64 -172 -38 -91 48 -88
201 4 262 31 20 103 26 133 9z m759 -4 c85 -47 83 -205 -3 -262 -33 -22 -97
-22 -130 0 -83 55 -88 193 -9 255 31 24 105 28 142 7z m306 -7 c101 -80 55
-268 -66 -272 -87 -2 -138 52 -138 148 0 95 45 144 131 145 32 0 54 -6 73 -21z
m-996 -112 c3 -80 -5 -106 -23 -77 -4 6 -16 3 -32 -10 -33 -26 -46 -25 -79 3
-36 31 -28 47 41 87 43 25 57 39 62 61 11 58 28 23 31 -64z m182 4 c0 -84 -1
-89 -20 -84 -11 3 -20 0 -20 -6 0 -6 -4 -11 -10 -11 -6 0 -10 38 -10 95 l0 95
30 0 30 0 0 -89z"/>
<path d="M2769 2529 c-12 -23 -7 -155 7 -192 8 -23 41 -22 54 2 14 27 12 151
-3 181 -17 33 -43 37 -58 9z m48 -26 c11 -39 7 -153 -6 -166 -16 -16 -31 36
-31 112 0 37 3 71 7 74 13 13 23 7 30 -20z"/>
<path d="M2043 2538 c-10 -12 -23 -88 -15 -88 1 0 17 7 33 16 25 13 30 20 27
47 -3 34 -27 47 -45 25z m33 -19 c3 -6 -1 -18 -10 -27 -15 -15 -16 -14 -16 11
0 27 13 36 26 16z"/>
<path d="M2313 2538 c-10 -12 -23 -88 -15 -88 1 0 17 7 33 16 25 13 30 20 27
47 -3 34 -27 47 -45 25z m33 -19 c3 -6 -1 -18 -10 -27 -15 -15 -16 -14 -16 11
0 27 13 36 26 16z"/>
<path d="M3070 2524 c-6 -14 -10 -54 -10 -89 0 -79 13 -115 40 -115 13 0 24
10 30 26 13 34 13 160 0 185 -15 28 -49 24 -60 -7z m52 -41 c9 -58 -3 -138
-22 -138 -12 0 -16 17 -18 79 -2 44 0 86 3 93 9 26 30 7 37 -34z"/>
<path d="M3371 2531 c-14 -25 -14 -166 -1 -192 17 -30 46 -24 59 12 12 35 13
129 2 169 -9 32 -46 39 -60 11z m43 -17 c9 -25 7 -147 -4 -164 -7 -12 -12 -12
-22 -2 -14 14 -18 134 -6 165 9 21 24 22 32 1z"/>
<path d="M3560 2732 c-40 -20 -45 -43 -12 -57 22 -10 22 -12 22 -201 0 -210
-2 -204 60 -204 33 0 60 23 60 52 0 13 14 -1 43 -43 54 -81 94 -109 159 -109
27 0 62 7 79 15 25 13 28 19 19 35 -8 15 -17 19 -35 14 -29 -7 -90 50 -134
127 l-30 53 30 33 c36 42 40 102 9 133 -24 24 -78 26 -106 5 -10 -8 -22 -15
-26 -15 -5 0 -8 32 -8 70 0 57 -4 74 -20 90 -25 25 -64 26 -110 2z m98 -14 c8
-8 12 -47 12 -109 l0 -97 34 34 c25 25 43 34 68 34 44 0 58 -15 58 -61 0 -28
-7 -45 -31 -68 l-30 -31 28 -52 c41 -76 112 -149 145 -151 31 -2 36 -12 12
-21 -33 -13 -109 -6 -137 13 -35 23 -84 90 -116 159 l-24 52 25 20 c29 22 62
85 53 100 -10 16 -40 -5 -64 -44 -17 -27 -21 -50 -21 -115 0 -76 -2 -82 -24
-92 -17 -8 -29 -8 -45 0 -20 11 -21 18 -21 211 0 181 -2 199 -17 203 -15 3
-14 6 7 15 34 15 73 15 88 0z m72 -217 c-11 -21 -30 -37 -30 -25 0 8 30 44 37
44 2 0 -1 -9 -7 -19z"/>
<path d="M1267 2719 c-88 -21 -137 -67 -137 -128 0 -54 23 -81 70 -81 42 0 70
20 70 50 0 36 -12 50 -41 50 -16 0 -29 4 -29 9 0 9 61 41 79 41 8 0 11 -54 11
-173 0 -197 6 -217 65 -217 62 0 65 11 65 210 0 98 3 181 8 183 4 3 27 -2 51
-10 42 -14 46 -14 58 3 15 21 16 34 3 54 -7 12 -34 15 -122 17 -62 1 -130 -2
-151 -8z m261 -38 c3 -21 1 -23 -20 -16 -12 4 -42 10 -65 12 l-43 5 0 -191 0
-191 -24 -11 c-17 -8 -29 -8 -45 0 -20 11 -21 18 -21 203 l0 191 -37 -6 c-64
-11 -112 -62 -84 -90 7 -7 15 -6 25 2 20 17 36 6 36 -24 0 -50 -66 -56 -96
-10 -33 50 17 119 104 145 15 5 81 8 147 7 118 -2 120 -2 123 -26z"/>
<path d="M0 2500 l0 -30 275 0 275 0 0 29 0 29 -275 2 -275 1 0 -31z m535 10
c3 -5 1 -10 -4 -10 -6 0 -11 5 -11 10 0 6 2 10 4 10 3 0 8 -4 11 -10z"/>
<path d="M4449 2528 c0 -2 -2 -15 -3 -30 l-2 -28 278 0 278 0 0 30 0 30 -275
0 c-151 0 -275 -1 -276 -2z"/>
<path d="M555 1439 c-126 -72 -233 -133 -237 -137 -4 -4 -1 -17 5 -29 12 -22
15 -21 220 95 115 64 224 125 243 135 34 17 34 18 18 42 -9 14 -17 25 -18 24
0 0 -104 -59 -231 -130z m195 71 c0 -5 -7 -7 -15 -4 -8 4 -15 8 -15 10 0 2 7
4 15 4 8 0 15 -4 15 -10z"/>
<path d="M4146 1464 c-3 -9 -6 -17 -6 -19 0 -6 450 -285 460 -285 5 0 14 9 20
20 12 22 31 7 -232 174 -59 37 -112 65 -118 61 -5 -3 -10 0 -10 8 0 15 -69 57
-93 57 -8 0 -18 -7 -21 -16z"/>
<path d="M1423 818 c-15 -24 -80 -128 -145 -233 l-119 -190 22 -18 c12 -10 23
-16 24 -15 18 22 285 459 285 467 0 5 -9 15 -20 21 -17 9 -23 5 -47 -32z"/>
<path d="M3440 795 c-14 -17 -5 -36 15 -28 9 3 15 -1 15 -10 0 -8 -4 -17 -8
-19 -10 -3 221 -421 235 -425 5 -2 17 3 27 10 17 12 9 29 -115 250 -73 130
-138 237 -145 237 -6 0 -17 -7 -24 -15z"/>
<path d="M2480 534 c0 -20 22 -42 38 -36 6 2 12 15 12 28 0 19 -5 24 -25 24
-16 0 -25 -6 -25 -16z"/>
<path d="M2515 469 c-4 -6 -13 -8 -21 -5 -12 5 -14 -32 -14 -229 l0 -235 25 0
25 0 0 240 c0 132 -2 240 -4 240 -3 0 -8 -5 -11 -11z"/>
</g>
</svg>
